<?xml version="1.0" encoding="UTF-8" standalone="no"?>
<svg
   width="172"
   height="244"
   version="1.1"
   id="svg349"
   sodipodi:docname="Crowned_Fleur_de_lys.svg"
   inkscape:version="1.4.2 (ebf0e940d0, 2025-05-08)"
   xmlns:inkscape="http://www.inkscape.org/namespaces/inkscape"
   xmlns:sodipodi="http://sodipodi.sourceforge.net/DTD/sodipodi-0.dtd"
   xmlns="http://www.w3.org/2000/svg"
   xmlns:svg="http://www.w3.org/2000/svg">
  <sodipodi:namedview
     id="namedview349"
     pagecolor="#ffffff"
     bordercolor="#000000"
     borderopacity="0.25"
     inkscape:showpageshadow="2"
     inkscape:pageopacity="0.0"
     inkscape:pagecheckerboard="0"
     inkscape:deskcolor="#d1d1d1"
     inkscape:zoom="2.4394366"
     inkscape:cx="124.8239"
     inkscape:cy="177.5"
     inkscape:window-width="1920"
     inkscape:window-height="1048"
     inkscape:window-x="0"
     inkscape:window-y="32"
     inkscape:window-maximized="1"
     inkscape:current-layer="g349" />
  <defs
     id="defs1">
    <path
       id="a"
       fill="#f6e078"
       fill-opacity="1"
       stroke="none"
       stroke-width="2.53443"
       d="m 358.40625,213.625 c -9.01862,2.00071 -18.58735,5.97462 -26.125,13.4375 -6.98683,6.91751 -11.63404,15.08312 -14.3125,25 -2.50702,9.28162 -2.58321,14.80213 -1.46875,24.04546 1.43404,11.89312 8.75,23.82954 8.75,23.82954 l 12.61079,-2.25001 c 0,0 -7.59909,-16.01584 -8.45454,-23.11078 -1.02761,-8.52279 -0.99559,-11.25681 1.125,-19.10796 2.19673,-8.13309 5.38619,-13.72188 10.875,-19.15625 5.17675,-5.1254 12.46898,-8.30052 19.9375,-10.03125 6.66136,-1.54368 14.18809,-2.2045 20.03125,-1 11.09888,2.2879 18.30929,5.91135 30.375,9.71875 8.70338,2.7464 15.35569,3.68799 24.15625,4.1875 5.38288,0.30553 11.60486,-1.03732 17.4375,-2.28125 5.83264,-1.24393 10.71875,-2.53125 10.71875,-2.53125 l -3.28125,-12.59375 c 0,0 -4.66152,1.23439 -10.15625,2.40625 -5.49473,1.17186 -12.35818,2.12267 -13.96875,2.03125 -8.297,-0.47093 -13.16767,-1.16332 -20.96875,-3.625 -11.16863,-3.52432 -19.07437,-7.43165 -31.6875,-10.0625 -8.49943,-1.77281 -17.21701,-0.76456 -25.59375,1.09375 z"
       color="#000000"
       direction="ltr"
       display="inline"
       font-family="'Bitstream Vera Sans'"
       font-size="medium"
       font-stretch="normal"
       font-style="normal"
       font-variant="normal"
       font-weight="400"
       letter-spacing="normal"
       overflow="visible"
       style="line-height:normal;-inkscape-font-specification:'Bitstream Vera Sans';text-indent:0;text-align:start;text-decoration:none;text-decoration-line:none;text-transform:none;marker:none"
       text-anchor="start"
       text-decoration="none"
       visibility="visible"
       word-spacing="normal"
       writing-mode="lr-tb" />
    <path
       id="b"
       fill="#f8eca8"
       fill-opacity="1"
       stroke="none"
       stroke-width="2.53443"
       d="m 462.42187,228.07812 -1.64062,-6.29687 c 0,0 -4.66152,1.23439 -10.15625,2.40625 -5.49473,1.17186 -12.35818,2.12267 -13.96875,2.03125 -8.297,-0.47093 -13.16767,-1.16332 -20.96875,-3.625 -11.16863,-3.52432 -19.07437,-7.43165 -31.6875,-10.0625 -8.49943,-1.77281 -17.21701,-0.76456 -25.59375,1.09375 -9.01862,2.00071 -18.58735,5.97462 -26.125,13.4375 -6.98683,6.91751 -11.63404,15.08312 -14.3125,25 -2.50702,9.28162 -2.58321,14.80213 -1.46875,24.04546 1.43404,11.89312 8.75,23.82954 8.75,23.82954 l 6.30539,-1.125 c -2.94689,-5.46657 -7.64827,-15.41748 -8.72297,-23.10006 -2.6504,-18.94644 2.99839,-32.32465 9.94502,-40.34775 7.54508,-8.7143 26.58975,-18.38859 41.20662,-17.89326 18.01836,0.6106 33.90008,10.64532 54.35408,13.95628 11.72242,1.89754 23.29409,1.73685 34.08373,-3.34959 z"
       color="#000000"
       direction="ltr"
       display="inline"
       font-family="'Bitstream Vera Sans'"
       font-size="medium"
       font-stretch="normal"
       font-style="normal"
       font-variant="normal"
       font-weight="400"
       letter-spacing="normal"
       overflow="visible"
       style="line-height:normal;-inkscape-font-specification:'Bitstream Vera Sans';text-indent:0;text-align:start;text-decoration:none;text-decoration-line:none;text-transform:none;marker:none"
       text-anchor="start"
       text-decoration="none"
       visibility="visible"
       word-spacing="normal"
       writing-mode="lr-tb" />
    <path
       id="c"
       fill="#e7cd54"
       fill-opacity="1"
       stroke="none"
       stroke-width="2.53443"
       d="m 334.70809,298.24999 3.1527,-0.5625 c 0,0 -7.59909,-16.01584 -8.45454,-23.11078 -1.02761,-8.52279 -0.99559,-11.25681 1.125,-19.10796 2.19673,-8.13309 5.38619,-13.72188 10.875,-19.15625 2.06945,-2.04892 4.47696,-3.78617 7.09866,-5.24408 3.93652,-2.18906 8.35592,-3.74831 12.83884,-4.78717 3.36879,-0.78067 6.95889,-1.33555 10.44064,-1.53756 3.40298,-0.19744 6.70246,-0.0578 9.59061,0.53756 1.5147,0.31224 2.95697,0.64935 4.34904,1.00841 3.82848,0.98747 7.27729,2.14095 10.80872,3.39954 4.59347,1.63709 9.32675,3.45202 15.21724,5.3108 8.70338,2.7464 15.35569,3.68799 24.15625,4.1875 1.03591,0.0588 2.1029,0.0565 3.19221,0.006 4.57104,-0.21336 9.53512,-1.28241 14.24529,-2.28695 5.83264,-1.24393 10.71875,-2.53125 10.71875,-2.53125 l -0.82031,-3.14844 c -32.90685,12.78437 -59.1257,-4.33338 -81.62839,-9.05013 -7.42223,-1.55576 -16.39219,-0.82461 -22.88575,1.13057 -7.70813,2.32089 -15.54903,6.39362 -20.884,12.21403 -5.0349,5.49305 -12.62844,18.14536 -12.37216,31.11102 0.32921,16.65461 9.2362,31.61794 9.2362,31.61794 z"
       color="#000000"
       direction="ltr"
       display="inline"
       font-family="'Bitstream Vera Sans'"
       font-size="medium"
       font-stretch="normal"
       font-style="normal"
       font-variant="normal"
       font-weight="400"
       letter-spacing="normal"
       overflow="visible"
       style="line-height:normal;-inkscape-font-specification:'Bitstream Vera Sans';text-indent:0;text-align:start;text-decoration:none;text-decoration-line:none;text-transform:none;marker:none"
       text-anchor="start"
       text-decoration="none"
       visibility="visible"
       word-spacing="normal"
       writing-mode="lr-tb" />
    <path
       id="d"
       fill="none"
       stroke="#806600"
       stroke-dasharray="none"
       stroke-miterlimit="4"
       stroke-width="2.53443"
       d="m 358.40625,213.625 c -9.01862,2.00071 -18.58735,5.97462 -26.125,13.4375 -6.98683,6.91751 -11.63404,15.08312 -14.3125,25 -2.50702,9.28162 -2.58321,14.80213 -1.46875,24.04546 1.43404,11.89312 8.75,23.82954 8.75,23.82954 l 12.61079,-2.25001 c 0,0 -7.59909,-16.01584 -8.45454,-23.11078 -1.02761,-8.52279 -0.99559,-11.25681 1.125,-19.10796 2.19673,-8.13309 5.38619,-13.72188 10.875,-19.15625 5.17675,-5.1254 12.46898,-8.30052 19.9375,-10.03125 6.66136,-1.54368 14.18809,-2.2045 20.03125,-1 11.09888,2.2879 18.30929,5.91135 30.375,9.71875 8.70338,2.7464 15.35569,3.68799 24.15625,4.1875 5.38288,0.30553 11.60486,-1.03732 17.4375,-2.28125 5.83264,-1.24393 10.71875,-2.53125 10.71875,-2.53125 l -3.28125,-12.59375 c 0,0 -4.66152,1.23439 -10.15625,2.40625 -5.49473,1.17186 -12.35818,2.12267 -13.96875,2.03125 -8.297,-0.47093 -13.16767,-1.16332 -20.96875,-3.625 -11.16863,-3.52432 -19.07437,-7.43165 -31.6875,-10.0625 -8.49943,-1.77281 -17.21701,-0.76456 -25.59375,1.09375 z"
       color="#000000"
       direction="ltr"
       display="inline"
       font-family="'Bitstream Vera Sans'"
       font-size="medium"
       font-stretch="normal"
       font-style="normal"
       font-variant="normal"
       font-weight="400"
       letter-spacing="normal"
       overflow="visible"
       style="line-height:normal;-inkscape-font-specification:'Bitstream Vera Sans';text-indent:0;text-align:start;text-decoration:none;text-decoration-line:none;text-transform:none;marker:none"
       text-anchor="start"
       text-decoration="none"
       visibility="visible"
       word-spacing="normal"
       writing-mode="lr-tb" />
    <path
       id="e"
       fill="#ececec"
       fill-opacity="1"
       fill-rule="evenodd"
       stroke="none"
       stroke-width="3.8083"
       d="m 2700.1897,785.0257 c 0,5.8876 -4.6959,10.66045 -10.4885,10.66045 -5.7927,0 -10.4885,-4.77285 -10.4885,-10.66045 0,-5.88761 4.6958,-10.66046 10.4885,-10.66046 5.7926,0 10.4885,4.77285 10.4885,10.66046 z"
       display="inline"
       overflow="visible"
       style="marker:none"
       visibility="visible" />
    <path
       id="f"
       fill="#cccccc"
       fill-rule="evenodd"
       stroke="none"
       d="m 2680.8443,788.61581 1.995,2.51216 3.8421,2.14272 3.3249,0.14778 3.5466,-0.36944 3.7682,-2.95548 1.6255,-2.51216 1.0345,-3.91602 v -4.06378 l -1.6256,-2.2905 -2.3643,-2.73382 -2.9556,-1.1822 c 0,0 1.536,2.71845 1.9211,3.9899 0.3698,1.22108 0.3941,2.81195 0.1478,4.0638 -0.2379,1.20858 -0.8568,2.73191 -1.6255,3.69435 -0.8515,1.0661 -2.4648,2.36388 -3.6943,2.95548 -1.3729,0.66057 -3.1321,0.84093 -4.6549,0.88664 -1.2898,0.0387 -4.2855,-0.36943 -4.2855,-0.36943 z" />
    <path
       id="g"
       fill="#ffffff"
       fill-opacity="1"
       fill-rule="evenodd"
       stroke="none"
       stroke-width="2.31999"
       d="m 2690.3018,778.013 c 0,1.89653 -1.5558,3.43575 -3.4727,3.43575 -1.9169,0 -3.4727,-1.53922 -3.4727,-3.43575 0,-0.97409 0.7666,-0.9438 1.4256,-1.56923 0.624,-0.59226 1.6935,-1.68449 2.6259,-1.68449 1.9169,0 2.8939,1.35719 2.8939,3.25372 z"
       display="inline"
       overflow="visible"
       style="marker:none"
       visibility="visible" />
    <path
       id="h"
       fill="none"
       stroke="#808080"
       stroke-dasharray="none"
       stroke-dashoffset="0"
       stroke-linecap="butt"
       stroke-linejoin="miter"
       stroke-miterlimit="4"
       stroke-opacity="1"
       stroke-width="3.8083"
       d="m 2700.1897,785.0257 c 0,5.8876 -4.6959,10.66045 -10.4885,10.66045 -5.7927,0 -10.4885,-4.77285 -10.4885,-10.66045 0,-5.88761 4.6958,-10.66046 10.4885,-10.66046 5.7926,0 10.4885,4.77285 10.4885,10.66046 z"
       display="inline"
       overflow="visible"
       style="marker:none"
       visibility="visible" />
    <path
       id="i"
       fill="#f6e078"
       fill-opacity="1"
       stroke="none"
       d="m -346.45864,1090.7071 h 16.90201 l 2.19927,3.8065 -2.19927,3.8064 h -16.90201 l -2.7068,-3.8064 z" />
    <path
       id="j"
       fill="none"
       stroke="#806600"
       stroke-dasharray="none"
       stroke-miterlimit="4"
       stroke-opacity="1"
       stroke-width="2.53443"
       d="m -346.45864,1090.7071 h 16.90201 l 2.19927,3.8065 -2.19927,3.8064 h -16.90201 l -2.7068,-3.8064 z"
       display="inline" />
    <path
       id="k"
       fill="#f6e078"
       fill-opacity="1"
       stroke="none"
       stroke-width="2.86527"
       d="m -644.32223,561.76862 -0.0312,0.0312 h -0.0312 c -13.36934,1.25678 -28.84217,2.62778 -42.34375,5.03125 -1.90913,2.98168 -2.06747,5.70075 1.40625,7.875 12.96265,-2.30753 28.24596,-3.71121 41.625,-4.96875 18.14491,-1.37417 36.43964,-2.23317 54.6875,-2.4688 h 35 c 10.91556,0 33.96831,0.8703 54.6875,2.5 20.62477,1.62227 41.6875,4.9375 41.6875,4.9375 3.59435,-2.39802 3.20392,-5.08067 1.25,-7.875 0,0 -21.25757,-3.40639 -42.3125,-5.0625 -20.96041,-1.64868 -43.98416,-2.5 -55.3125,-2.5 h -35 c -18.46448,0.0721 -36.90054,1.20996 -55.3126,2.5001 z"
       color="#000000"
       direction="ltr"
       display="inline"
       font-family="'Bitstream Vera Sans'"
       font-size="medium"
       font-stretch="normal"
       font-style="normal"
       font-variant="normal"
       font-weight="400"
       letter-spacing="normal"
       overflow="visible"
       style="line-height:normal;-inkscape-font-specification:'Bitstream Vera Sans';text-indent:0;text-align:start;text-decoration:none;text-decoration-line:none;text-transform:none;marker:none"
       text-anchor="start"
       text-decoration="none"
       visibility="visible"
       word-spacing="normal"
       writing-mode="lr-tb" />
    <path
       id="l"
       fill="#f8eca8"
       fill-opacity="1"
       stroke="none"
       stroke-width="2.86527"
       d="m -454.92903,569.95629 c 0.10745,-1.31971 -0.47864,-1.7281 -1.4556,-3.12527 0,0 -21.25757,-3.40639 -42.3125,-5.0625 -20.96041,-1.64868 -43.98416,-2.5 -55.3125,-2.5 h -35 c -18.46448,0.0721 -36.90054,1.20996 -55.3126,2.5001 l -0.0312,0.0312 h -0.0312 c -13.36934,1.25678 -28.84217,2.62778 -42.34375,5.03125 -0.95457,1.49084 -1.47143,1.6349 -1.31544,2.95916 15.61395,-1.89703 28.80702,-4.05063 43.91525,-5.23163 23.98015,-1.87451 49.50789,-2.23512 72.35649,-2.3283 22.78284,-0.0929 45.0466,0.69285 66.87797,2.34356 16.90077,1.27789 33.54239,3.07416 49.96508,5.38243 z"
       color="#000000"
       direction="ltr"
       display="inline"
       font-family="'Bitstream Vera Sans'"
       font-size="medium"
       font-stretch="normal"
       font-style="normal"
       font-variant="normal"
       font-weight="400"
       letter-spacing="normal"
       overflow="visible"
       style="line-height:normal;-inkscape-font-specification:'Bitstream Vera Sans';text-indent:0;text-align:start;text-decoration:none;text-decoration-line:none;text-transform:none;marker:none"
       text-anchor="start"
       text-decoration="none"
       visibility="visible"
       word-spacing="normal"
       writing-mode="lr-tb" />
    <path
       id="m"
       fill="#d1b948"
       fill-opacity="1"
       stroke="none"
       stroke-width="2.86527"
       d="m -687.27466,572.9792 c 0.44377,0.60668 1.08484,1.18377 1.95253,1.72687 12.96265,-2.30753 28.24596,-3.71121 41.625,-4.96875 18.14491,-1.37417 36.43964,-2.23317 54.6875,-2.4688 h 35 c 10.91556,0 33.96831,0.8703 54.6875,2.5 20.62477,1.62227 41.6875,4.9375 41.6875,4.9375 1.12714,-0.75199 1.45291,-1.1907 1.87102,-1.99333 -39.88861,-7.11356 -76.13007,-7.82574 -114.389,-8.18008 -37.26743,-0.34515 -79.25667,1.89738 -117.1221,8.44659 z"
       color="#000000"
       direction="ltr"
       display="inline"
       font-family="'Bitstream Vera Sans'"
       font-size="medium"
       font-stretch="normal"
       font-style="normal"
       font-variant="normal"
       font-weight="400"
       letter-spacing="normal"
       overflow="visible"
       style="line-height:normal;-inkscape-font-specification:'Bitstream Vera Sans';text-indent:0;text-align:start;text-decoration:none;text-decoration-line:none;text-transform:none;marker:none"
       text-anchor="start"
       text-decoration="none"
       visibility="visible"
       word-spacing="normal"
       writing-mode="lr-tb" />
    <path
       id="n"
       fill="#36a464"
       fill-opacity="1"
       fill-rule="evenodd"
       stroke="none"
       stroke-width="3.07541"
       d="m 565.01863,299.34379 c 0.16428,1.17528 -0.61499,3.21301 -1.92023,4.28583 -2.23557,1.8375 -6.01413,2.46021 -9.23764,2.75571 -5.10556,0.46803 -8.77519,-2.15754 -9.22082,-5.3458 -0.26654,-1.90697 0.5917,-4.44619 2.72862,-5.70759 1.43579,-0.84752 3.67047,-1.35117 5.72227,-1.53926 3.43411,-0.3148 8.07003,0.0272 10.46261,1.80225 1.16452,0.86395 1.31931,2.70509 1.46519,3.74886 z"
       display="inline"
       overflow="visible"
       style="marker:none"
       visibility="visible" />
    <path
       id="o"
       fill="#abe8c4"
       fill-opacity="1"
       fill-rule="evenodd"
       stroke="none"
       stroke-width="3.48633"
       d="m 816.43556,431.48138 c 0,1.63273 -2.53688,2.95632 -5.66627,2.95632 -3.1294,0 -5.66627,-1.32359 -5.66627,-2.95632 0,-1.63272 2.53687,-2.95631 5.66627,-2.95631 3.12939,0 5.66627,1.32359 5.66627,2.95631 z"
       display="inline"
       overflow="visible"
       style="marker:none"
       visibility="visible" />
    <path
       id="p"
       fill="#f6e078"
       fill-opacity="1"
       stroke="#806600"
       stroke-dasharray="none"
       stroke-linecap="butt"
       stroke-linejoin="miter"
       stroke-miterlimit="4"
       stroke-opacity="1"
       stroke-width="2.93243"
       d="m 626.1653,310.88312 -23.70093,-12.77075 23.70093,-12.0817 2.88143,13.14658 z"
       display="inline" />
    <path
       id="q"
       fill="#ff0a3e"
       fill-opacity="1"
       stroke="none"
       d="m 626.1653,307.46566 -17.18272,-9.25855 17.18272,-8.75898 5.657,8.57889 z"
       display="inline" />
    <path
       id="r"
       fill="#bc0028"
       fill-opacity="1"
       stroke="none"
       d="m 626.1653,307.46566 -17.18272,-9.25855 22.65964,-0.18009 z"
       display="inline" />
    <path
       id="s"
       fill="none"
       stroke="#f4d7d7"
       stroke-dasharray="none"
       stroke-linecap="butt"
       stroke-linejoin="miter"
       stroke-miterlimit="4"
       stroke-opacity="1"
       stroke-width="2.93243"
       d="m 608.93651,298.14055 22.95329,-0.0249" />
    <path
       id="t"
       fill="none"
       stroke="#a48d2f"
       stroke-dasharray="none"
       stroke-linecap="butt"
       stroke-linejoin="miter"
       stroke-miterlimit="4"
       stroke-opacity="1"
       stroke-width="2.93243"
       d="m 626.1653,307.46566 -17.18272,-9.25855 17.18272,-8.75898 5.83709,8.3988 z"
       display="inline" />
  </defs>
  <defs
     id="defs2" />
  <g
     display="inline"
     transform="translate(-53.548697,972.91384)"
     id="g349">
    <g
       stroke-dasharray="none"
       stroke-miterlimit="4"
       stroke-width="1"
       id="g348"
       transform="translate(-39.005094,-111.72742)">
      <g
         stroke-dasharray="none"
         stroke-miterlimit="4"
         stroke-width="1.29259"
         display="inline"
         transform="matrix(1.16046,0,0,1.16046,-377.38235,-1562.0078)"
         id="g60">
        <g
           stroke-dasharray="none"
           stroke-miterlimit="4"
           stroke-width="1.29259"
           transform="translate(-2142.48,465.06)"
           id="g9" />
        <g
           stroke-dasharray="none"
           stroke-miterlimit="4"
           stroke-width="1.29259"
           display="inline"
           transform="translate(2140.24,-506.657)"
           id="g16">
          <g
             fill="#ffe24b"
             fill-opacity="1"
             stroke-dasharray="none"
             stroke-miterlimit="4"
             stroke-width="1.42414"
             transform="matrix(0.8985,0,0,0.91685,-1847.81,527.007)"
             id="g12">
            <g
               fill="#ffe24b"
               fill-opacity="1"
               stroke-dasharray="none"
               stroke-miterlimit="4"
               stroke-width="1.42414"
               id="g10" />
            <g
               fill="#ffe24b"
               fill-opacity="1"
               stroke-dasharray="none"
               stroke-miterlimit="4"
               stroke-width="1.42414"
               display="inline"
               transform="matrix(-1,0,0,1,5279.07,0)"
               id="g11" />
          </g>
          <g
             fill="#ffe24b"
             fill-opacity="1"
             stroke-dasharray="none"
             stroke-miterlimit="4"
             stroke-width="1.42414"
             transform="matrix(-0.8985,0,0,0.91685,2847.76,527.007)"
             id="g15">
            <g
               fill="#ffe24b"
               fill-opacity="1"
               stroke-dasharray="none"
               stroke-miterlimit="4"
               stroke-width="1.42414"
               id="g13" />
            <g
               fill="#ffe24b"
               fill-opacity="1"
               stroke-dasharray="none"
               stroke-miterlimit="4"
               stroke-width="1.42414"
               display="inline"
               transform="matrix(-1,0,0,1,5279.07,0)"
               id="g14" />
          </g>
        </g>
        <g
           stroke-dasharray="none"
           stroke-miterlimit="4"
           stroke-width="1.29259"
           transform="translate(34.5601,-235.288)"
           id="g17" />
        <g
           stroke-dasharray="none"
           stroke-miterlimit="4"
           stroke-width="1.29259"
           display="inline"
           transform="translate(2279.04,-169.926)"
           id="g18" />
        <g
           stroke-dasharray="none"
           stroke-miterlimit="4"
           stroke-width="1.29259"
           display="inline"
           transform="translate(2279.04,-169.926)"
           id="g19" />
        <g
           stroke-dasharray="none"
           stroke-miterlimit="4"
           stroke-width="1.29259"
           display="inline"
           transform="translate(2279.04,-169.926)"
           id="g20" />
        <g
           stroke-dasharray="none"
           stroke-miterlimit="4"
           stroke-width="1.29259"
           transform="translate(136.562,295.134)"
           id="g21" />
        <g
           stroke-dasharray="none"
           stroke-miterlimit="4"
           stroke-width="1.29259"
           display="inline"
           transform="translate(4419.28,-676.583)"
           id="g28">
          <g
             fill="#ffe24b"
             fill-opacity="1"
             stroke-dasharray="none"
             stroke-miterlimit="4"
             stroke-width="1.42414"
             transform="matrix(0.8985,0,0,0.91685,-1847.81,527.007)"
             id="g24">
            <g
               fill="#ffe24b"
               fill-opacity="1"
               stroke-dasharray="none"
               stroke-miterlimit="4"
               stroke-width="1.42414"
               id="g22" />
            <g
               fill="#ffe24b"
               fill-opacity="1"
               stroke-dasharray="none"
               stroke-miterlimit="4"
               stroke-width="1.42414"
               display="inline"
               transform="matrix(-1,0,0,1,5279.07,0)"
               id="g23" />
          </g>
          <g
             fill="#ffe24b"
             fill-opacity="1"
             stroke-dasharray="none"
             stroke-miterlimit="4"
             stroke-width="1.42414"
             transform="matrix(-0.8985,0,0,0.91685,2847.76,527.007)"
             id="g27">
            <g
               fill="#ffe24b"
               fill-opacity="1"
               stroke-dasharray="none"
               stroke-miterlimit="4"
               stroke-width="1.42414"
               id="g25" />
            <g
               fill="#ffe24b"
               fill-opacity="1"
               stroke-dasharray="none"
               stroke-miterlimit="4"
               stroke-width="1.42414"
               display="inline"
               transform="matrix(-1,0,0,1,5279.07,0)"
               id="g26" />
          </g>
        </g>
        <g
           stroke-dasharray="none"
           stroke-miterlimit="4"
           stroke-width="1.29259"
           transform="translate(2313.6,-405.214)"
           id="g29" />
        <g
           stroke-dasharray="none"
           stroke-miterlimit="4"
           stroke-width="1.29259"
           transform="translate(-870.561,15.0431)"
           id="g30" />
        <g
           stroke-dasharray="none"
           stroke-miterlimit="4"
           stroke-width="1.29259"
           transform="translate(1.375,1.15625)"
           id="g59">
          <g
             stroke-dasharray="none"
             stroke-miterlimit="4"
             stroke-width="0.600905"
             transform="matrix(2.15108,0,0,2.15108,-563.117,-1043.62)"
             id="g58">
            <g
               stroke-dasharray="none"
               stroke-miterlimit="4"
               stroke-width="0.600905"
               transform="translate(5e-6)"
               id="g31" />
            <g
               stroke-dasharray="none"
               stroke-miterlimit="4"
               stroke-width="0.801969"
               transform="matrix(0.74929,0,0,0.74929,113.21816,215.41682)"
               id="g57">
              <g
                 stroke-dasharray="none"
                 stroke-miterlimit="4"
                 stroke-width="0.801969"
                 id="g39">
                <g
                   stroke-dasharray="none"
                   stroke-miterlimit="4"
                   stroke-width="0.801969"
                   transform="translate(-20.4184,559.639)"
                   id="g32">
                  <path
                     fill="#ffe24b"
                     fill-opacity="1"
                     fill-rule="evenodd"
                     stroke="none"
                     d="m 502.0459,263.91545 c 0.574,-5.39646 0.2684,-15.5749 -2.5708,-20.19983 -0.9594,-1.56279 -3.3097,-3.38275 -5.1418,-3.30542 -1.8055,0.0762 -4.29,0.60986 -5.1418,2.20361 -0.7808,1.46083 -1.2877,4.59767 -1.1018,6.24359 0.2582,2.28612 2.9382,6.97812 2.9382,6.97812 0,0 -9.6038,-1.92736 -12.8545,-4.40724 -3.2162,-2.45361 -6.6875,-7.10482 -7.7126,-11.01809 -0.3517,-1.34254 -1.7247,-5.68443 0.009,-10.89262 1.0064,-3.02315 4.0336,-7.06875 6.3762,-9.08505 6.1173,-5.2652 17.9963,-3.73456 20.4255,-2.42577 3.2127,1.73091 7.1281,5.41194 8.4472,8.81447 1.024,2.64119 3.1525,10.43714 3.6727,13.22171 1.0616,5.68278 1.3699,7.82674 1.8364,13.58897 0.3202,3.9551 1.2029,7.50631 0.3672,11.38536 -0.4502,2.08989 -1.0125,6.88623 -2.2337,10.04454 -1.2278,3.17525 -3.1176,4.71065 -4.7444,6.11532 -3.3233,2.86953 -13.9563,4.40725 -13.9563,4.40725 0,0 5.8421,-7.36967 7.3454,-10.65082 1.7852,-3.89624 3.5866,-6.7564 4.0399,-11.0181 z"
                     id="path31" />
                  <path
                     fill="#ffe24b"
                     fill-opacity="1"
                     fill-rule="evenodd"
                     stroke="none"
                     d="m 528.08801,263.91545 c -0.574,-5.39646 -0.2684,-15.5749 2.5708,-20.19983 0.9594,-1.56279 3.3097,-3.38275 5.1418,-3.30542 1.8055,0.0762 4.29,0.60986 5.1418,2.20361 0.7808,1.46083 1.2877,4.59767 1.1018,6.24359 -0.2582,2.28612 -2.9382,6.97812 -2.9382,6.97812 0,0 9.6038,-1.92736 12.8545,-4.40724 3.2162,-2.45361 6.6875,-7.10482 7.7126,-11.01809 0.3517,-1.34254 1.7247,-5.68443 -0.009,-10.89262 -1.0064,-3.02315 -4.0336,-7.06875 -6.3762,-9.08505 -6.1173,-5.2652 -17.9963,-3.73456 -20.4255,-2.42577 -3.2127,1.73091 -7.1281,5.41194 -8.4472,8.81447 -1.024,2.64119 -3.1525,10.43714 -3.6727,13.22171 -1.0616,5.68278 -1.3699,7.82674 -1.8364,13.58897 -0.3202,3.9551 -1.2029,7.50631 -0.3672,11.38536 0.4502,2.08989 1.0125,6.88623 2.2337,10.04454 1.2278,3.17525 3.1176,4.71065 4.7444,6.11532 3.3233,2.86953 13.9563,4.40725 13.9563,4.40725 0,0 -5.8421,-7.36967 -7.3454,-10.65082 -1.7852,-3.89624 -3.5866,-6.7564 -4.0399,-11.0181 z"
                     display="inline"
                     id="path32" />
                </g>
                <path
                   fill="#ddad00"
                   fill-opacity="1"
                   fill-rule="evenodd"
                   stroke="none"
                   d="m 517.54706,844.61882 -2.80137,-0.0446 -8.97216,-2.81983 -10.7666,-9.48485 -7.94677,7.56225 -5.3833,2.56347 -6.15233,2.05078 -4.08412,0.27769 c 0,0 7.23206,-4.86811 9.72798,-7.60551 1.78505,-1.95775 3.60515,-5.05182 4.77556,-7.42864 2.01675,-4.09553 5.12929,-14.32667 5.23761,-14.39691 l 2.29241,-0.3439 4.42181,0.35374 c 0,0 3.11254,10.23114 5.12929,14.32667 1.17041,2.37682 2.99051,5.47089 4.77556,7.42864 2.49592,2.7374 9.74643,7.56096 9.74643,7.56096 z"
                   id="path33" />
                <path
                   fill="#ddad00"
                   fill-opacity="1"
                   fill-rule="evenodd"
                   stroke="none"
                   d="m 518.98386,815.22346 c 0,0 5.46203,-2.30385 7.08927,-4.15578 1.73525,-1.97487 2.89854,-5.49092 3.42241,-8.06711 0.39458,-1.9404 -0.56822,-6.05815 -1.46675,-7.82265 -1.35792,-2.66665 -3.02118,-4.2082 -5.86699,-5.13361 -1.95279,-0.63501 -4.92025,-0.71602 -6.84481,0 -1.99803,0.74336 -4.79405,2.47971 -6.11144,4.15578 -1.98632,2.52713 -3.15688,5.4315 -3.91133,8.55603 -0.46476,1.92479 -1.50797,7.79863 -1.46675,9.77831 0.0367,1.76124 0.24446,7.33373 0.24446,7.33373 l 3.66687,6.11144 0.0913,-0.27832 -0.27391,-10.13469 v -4.24562 l 1.91738,-6.57385 3.14997,-4.24561 3.69779,-0.54782 3.56083,1.78042 1.50651,3.83474 -0.27391,4.65648 z"
                   id="path34" />
                <path
                   fill="#ddad00"
                   fill-opacity="1"
                   fill-rule="evenodd"
                   stroke="none"
                   d="m 470.32717,815.21194 c 0,0 -5.46203,-2.30385 -7.08927,-4.15578 -1.73525,-1.97487 -2.89854,-5.49092 -3.42241,-8.06711 -0.39458,-1.9404 0.56822,-6.05815 1.46675,-7.82265 1.35792,-2.66665 3.02118,-4.2082 5.86699,-5.13361 1.95279,-0.63501 4.92025,-0.71602 6.84481,0 1.99803,0.74336 4.79405,2.47971 6.11144,4.15578 1.98632,2.52713 3.15688,5.4315 3.91133,8.55603 0.46476,1.92479 1.50797,7.79863 1.46675,9.77831 -0.0367,1.76124 -0.24446,7.33373 -0.24446,7.33373 l -3.66687,6.11144 -0.0913,-0.27832 0.27391,-10.13469 v -4.24562 l -1.91738,-6.57385 -3.14997,-4.24561 -3.69779,-0.54782 -3.56083,1.78042 -1.50651,3.83474 0.27391,4.65648 z"
                   display="inline"
                   id="path35" />
                <g
                   fill="none"
                   stroke-dasharray="none"
                   stroke-miterlimit="4"
                   stroke-width="0.801969"
                   display="inline"
                   transform="translate(-20.4184,559.639)"
                   id="g37">
                  <path
                     fill="none"
                     stroke="#806600"
                     stroke-dasharray="none"
                     stroke-linecap="butt"
                     stroke-linejoin="miter"
                     stroke-miterlimit="4"
                     stroke-opacity="1"
                     stroke-width="0.801969"
                     d="m 502.0459,263.91545 c 0.574,-5.39646 0.63416,-15.82041 -2.5708,-20.19983 -4.87839,-6.66609 -12.17309,-2.86781 -11.3854,5.14178 0.22517,2.28961 2.9382,6.97812 2.9382,6.97812 0,0 -9.7583,-1.73696 -12.8545,-4.40724 -10.42487,-8.99077 -11.70808,-21.91201 -1.3274,-30.99576 6.07398,-5.31512 17.9963,-3.73456 20.4255,-2.42577 3.2127,1.73091 7.1281,5.41194 8.4472,8.81447 1.024,2.64119 3.1525,10.43714 3.6727,13.22171 1.0616,5.68278 1.3699,7.82674 1.8364,13.58897 0.3202,3.9551 1.2029,7.50631 0.3672,11.38536 -0.4502,2.08989 -1.0125,6.88623 -2.2337,10.04454 -1.2278,3.17525 -3.1176,4.71065 -4.7444,6.11532 -3.3233,2.86953 -13.9563,4.40725 -13.9563,4.40725 0,0 5.8421,-7.36967 7.3454,-10.65082 1.7852,-3.89624 3.5866,-6.7564 4.0399,-11.0181 z"
                     id="path36" />
                  <path
                     fill="none"
                     stroke="#806600"
                     stroke-dasharray="none"
                     stroke-linecap="butt"
                     stroke-linejoin="miter"
                     stroke-miterlimit="4"
                     stroke-opacity="1"
                     stroke-width="0.801969"
                     d="m 528.08801,263.91545 c -0.574,-5.39646 -0.63416,-15.82041 2.5708,-20.19983 4.87839,-6.66609 12.17309,-2.86781 11.3854,5.14178 -0.22517,2.28961 -2.9382,6.97812 -2.9382,6.97812 0,0 9.7583,-1.73696 12.8545,-4.40724 10.42487,-8.99077 11.70808,-21.91201 1.3274,-30.99576 -6.07398,-5.31512 -17.9963,-3.73456 -20.4255,-2.42577 -3.2127,1.73091 -7.1281,5.41194 -8.4472,8.81447 -1.024,2.64119 -3.1525,10.43714 -3.6727,13.22171 -1.0616,5.68278 -1.3699,7.82674 -1.8364,13.58897 -0.3202,3.9551 -1.2029,7.50631 -0.3672,11.38536 0.4502,2.08989 1.0125,6.88623 2.2337,10.04454 1.2278,3.17525 3.1176,4.71065 4.7444,6.11532 3.3233,2.86953 13.9563,4.40725 13.9563,4.40725 0,0 -5.8421,-7.36967 -7.3454,-10.65082 -1.7852,-3.89624 -3.5866,-6.7564 -4.0399,-11.0181 z"
                     display="inline"
                     id="path37" />
                </g>
                <path
                   fill="#fff2ac"
                   fill-opacity="1"
                   fill-rule="evenodd"
                   stroke="none"
                   d="m 455.61301,801.25465 c 0,0 0.47536,-3.76408 0.89556,-5.5972 0.51681,-2.25464 1.65434,-5.3763 3.35833,-6.94055 1.80107,-1.65338 4.52965,-2.95197 6.94054,-3.35833 2.12047,-0.35741 5.07955,-0.30279 7.16443,0.22389 1.60176,0.40464 3.51555,1.60179 4.92554,2.46277 1.06629,0.65111 3.35833,2.46278 3.35833,2.46278 0,0 -4.16597,-6.60661 -6.94054,-8.28388 -2.70584,-1.63572 -7.13812,-2.32138 -10.29887,-2.23888 -2.29667,0.06 -4.80369,1.19045 -6.71665,2.46278 -2.27105,1.51049 -4.70926,4.58552 -5.59721,7.16443 -0.63413,1.84171 -0.55613,4.626 0,6.49276 0.59571,1.99964 2.91054,5.14943 2.91054,5.14943 z"
                   id="path38" />
                <path
                   fill="#fff2ac"
                   fill-opacity="1"
                   fill-rule="evenodd"
                   stroke="none"
                   d="m 513.82401,785.13468 c 0,0 5.68852,-0.93856 8.05999,-0.44777 2.94145,0.60875 6.807,2.37861 8.95554,4.47777 1.84824,1.80576 4.02999,7.6122 4.02999,7.6122 0,0 0.18074,-6.09356 -0.67167,-8.50776 -0.51482,-1.45807 -1.73242,-3.25237 -2.91055,-4.25388 -1.80858,-1.53744 -4.79092,-3.32484 -7.16443,-3.35832 -1.24635,-0.0176 -4.09965,-0.0809 -5.78967,0.69266 -2.87788,1.31723 -4.5092,3.7851 -4.5092,3.7851 z"
                   id="path39" />
              </g>
              <g
                 stroke-dasharray="none"
                 stroke-miterlimit="4"
                 stroke-width="0.801969"
                 display="inline"
                 transform="translate(-15.418394,9.6385304)"
                 id="g41">
                <path
                   fill="#ffe24b"
                   fill-opacity="1"
                   fill-rule="evenodd"
                   stroke="none"
                   d="m 510,854 c 0,0 8.58079,-7.03775 10,-15 1.27665,-7.16228 -4.4103,-15.5515 -4.84132,-18.92499 -1.72367,-13.49216 1.92936,-31.46657 2.25863,-32.93573 1.30797,-5.83607 2.95399,-8.33308 3.83033,-10.24414 0.63083,-1.37567 2.43333,-4.1112 4.23574,-6.76319 1.03432,-1.52175 3.33777,-4.35506 4.51118,-7.23688 1.24372,-3.0544 1.32896,-6.16333 1.34698,-7.82303 0.0307,-2.8265 -0.50296,-5.23079 -1.25324,-7.53217 -0.71305,-2.18762 -3.03665,-5.76776 -6.40372,-7.82555 -3.63004,-2.21837 -6.56481,-4.00185 -7.68157,-4.70812 C 512.31404,732.67317 510.04353,725 510,725 c -0.0434,0 -2.31409,7.67317 -6.00305,10.0062 -1.11676,0.70627 -3.91757,2.48975 -7.54761,4.70812 -3.36709,2.05779 -5.69067,5.63793 -6.40372,7.82555 -0.75028,2.30138 -1.28395,4.70567 -1.25324,7.53217 0.018,1.6597 0.10326,4.76863 1.34698,7.82303 1.1734,2.88182 3.47686,5.71513 4.51118,7.23688 1.80241,2.65199 3.60491,5.38752 4.23574,6.76319 0.87634,1.91106 2.52236,4.40807 3.83033,10.24414 0.32927,1.46916 3.9823,19.44357 2.25863,32.93573 C 504.54422,823.4485 498.72335,831.83772 500,839 c 1.41921,7.96225 10,15 10,15 z"
                   display="inline"
                   id="path40" />
                <path
                   fill="none"
                   stroke="#aa8800"
                   stroke-dasharray="none"
                   stroke-linecap="butt"
                   stroke-linejoin="miter"
                   stroke-miterlimit="4"
                   stroke-opacity="1"
                   stroke-width="0.801969"
                   d="M 510,854 509.9892,726.04466"
                   id="path41" />
              </g>
              <path
                 fill="#ddad00"
                 fill-opacity="1"
                 fill-rule="evenodd"
                 stroke="none"
                 d="m 494.84211,863.37823 6.99614,-7.80339 2.69082,-5.11256 -0.53817,-6.99613 -1.88357,-7.26522 -2.95991,-6.45797 v -10.49421 l 1.07633,-10.4942 1.34541,-11.57054 2.95991,-9.14879 4.84348,-6.72706 4.03623,-6.99613 1.61449,-3.76715 0.80725,-6.72706 -1.07633,-6.45797 -3.40685,-5.45931 -6.54919,-4.49673 c 0,0 3.88019,4.36223 6.4255,8.4648 1.36661,2.20273 1.34965,4.90514 1.37788,5.52747 0.12071,2.66118 -0.0818,3.89476 -0.80725,6.45798 -0.67117,2.37126 -2.09366,4.97104 -3.49806,6.99613 -1.57353,2.26898 -4.38725,4.81004 -5.65073,7.26522 -1.81147,3.52004 -3.0338,8.75658 -3.76715,12.64686 -0.90035,4.77615 -1.02418,11.29529 -1.34541,16.14493 -0.32585,4.91938 -1.1972,11.4993 -0.80725,16.41401 0.24795,3.12496 1.5999,7.5066 2.15266,10.22513 0.38233,1.88033 1.37033,4.28568 1.61449,6.18889 0.23625,1.84157 0.25266,4.34949 0,6.18889 -0.28519,2.07624 -1.08341,4.79008 -1.88357,6.72705 -0.88312,2.13779 -3.76715,6.72706 -3.76715,6.72706 z"
                 display="inline"
                 id="path42" />
              <path
                 fill="#ddad00"
                 fill-opacity="1"
                 fill-rule="evenodd"
                 stroke="none"
                 d="m 485.42423,851.53861 c 0,0 0.16406,-4.17623 0.53817,-5.91981 0.5195,-2.42118 1.81972,-5.48537 2.69082,-7.80338 0.82791,-2.20308 2.47146,-4.96296 2.9599,-7.26522 1.07274,-5.05636 0.83937,-12.06114 0.53817,-17.22126 -0.22353,-3.82939 -1.34418,-8.84907 -1.88358,-12.64686 -0.42382,-2.98401 -1.2165,-7.62932 -2.15266,-10.4942 -0.99855,-3.05582 -2.63382,-6.95705 -4.30531,-9.70318 -1.42022,-2.33331 -3.34386,-4.62924 -5.11256,-6.71084 -1.36803,-1.61005 -5.11256,-4.84348 -5.11256,-4.84348 l 0.52033,0.19614 0.61759,2.8821 2.47037,4.11728 2.47037,4.52901 4.11728,6.38179 2.67624,6.79351 1.44104,7.20524 1.23519,9.88148 0.61759,9.88147 v 9.26389 l -2.2645,4.73487 -2.67624,7.20524 -0.82345,5.97006 z"
                 display="inline"
                 id="path43" />
              <path
                 fill="none"
                 stroke="#806600"
                 stroke-dasharray="none"
                 stroke-linecap="butt"
                 stroke-linejoin="miter"
                 stroke-miterlimit="4"
                 stroke-opacity="1"
                 stroke-width="0.801969"
                 d="m 494.58157,863.63857 c 0,0 8.58079,-7.03775 10,-15 1.27665,-7.16228 -4.4103,-15.5515 -4.84132,-18.92499 -1.72367,-13.49216 1.95911,-31.46022 2.25863,-32.93573 1.28331,-6.32187 4.70711,-12.34027 8.06607,-17.00733 3.43302,-4.76996 5.78401,-8.98345 5.85816,-15.05991 0.0345,-2.82646 -0.31837,-5.2994 -1.25324,-7.53217 -2.88691,-6.89484 -7.99552,-8.69091 -14.08529,-12.53367 -3.69133,-2.3293 -5.95948,-10.0062 -6.00301,-10.0062 -0.0434,0 -2.36113,7.6004 -6.00305,10.0062 -5.252,3.46939 -11.70108,5.92996 -13.95133,12.53367 -0.78075,2.29122 -1.22714,4.70562 -1.25324,7.53217 -0.0563,6.10264 2.32746,10.08823 5.85816,15.05991 3.87334,5.45416 6.97893,12.26759 8.06607,17.00733 0.3366,1.4675 3.9823,19.44357 2.25863,32.93573 -0.43102,3.37349 -6.25189,11.76271 -4.97524,18.92499 1.41921,7.96225 10,15 10,15 z"
                 display="inline"
                 id="path44" />
              <path
                 fill="#fff2ac"
                 fill-opacity="1"
                 fill-rule="evenodd"
                 stroke="none"
                 d="m 489.82436,781.88418 0.73547,-33.09624 c 0,0 -4.11865,3.08898 -5.88378,4.41283 -1.32385,0.99289 -3.58743,1.87537 -4.41283,3.30963 -1.88381,3.27342 -2.71082,6.87906 -1.1032,10.2966 0.95085,2.02135 4.36691,4.61167 5.88377,6.25152 2.04471,2.2105 4.78057,8.82566 4.78057,8.82566 z"
                 display="inline"
                 id="path45" />
              <path
                 fill="#fff2ac"
                 fill-opacity="1"
                 fill-rule="evenodd"
                 stroke="none"
                 d="m 498.28229,776.73588 v -23.90284 c 0,0 1.31182,2.51989 2.20641,3.30962 0.73974,0.65303 2.20914,0.81009 2.94189,1.47095 1.06815,0.96336 2.29399,2.63423 2.57415,4.04509 0.37094,1.86796 -0.18379,4.58372 -1.10321,6.25151 -0.79178,1.43625 -3.05477,2.37009 -4.04509,3.67737 -1.04271,1.37643 -2.57415,5.1483 -2.57415,5.1483 z"
                 display="inline"
                 id="path46" />
              <path
                 fill="#fff2ac"
                 fill-opacity="1"
                 fill-rule="evenodd"
                 stroke="none"
                 d="m 492.26781,853.22497 c -0.30737,-3.18642 -0.23704,-10.66435 -0.23704,-10.66435 0,0 -2.71962,4.02223 -3.17448,5.84169 -0.24081,0.96324 -0.48167,3.0463 -0.23261,4.00744 0.56982,2.19902 4.28213,6.71229 4.28213,6.71229 0,0 -0.49668,-4.43201 -0.638,-5.89707 z"
                 display="inline"
                 id="path47" />
              <g
                 stroke-dasharray="none"
                 stroke-miterlimit="4"
                 stroke-width="0.801969"
                 transform="translate(3.5e-5)"
                 id="g56">
                <g
                   stroke-dasharray="none"
                   stroke-miterlimit="4"
                   stroke-width="0.801969"
                   id="g55">
                  <g
                     stroke-dasharray="none"
                     stroke-miterlimit="4"
                     stroke-width="0.801969"
                     id="g54">
                    <path
                       fill="#ffe24b"
                       fill-opacity="1"
                       fill-rule="evenodd"
                       stroke="none"
                       d="m 513.85885,820.35686 -4.1277,-5.71831 h -30.1496 l -4.1434,5.71831 4.1434,5.6925 h 30.1496 z"
                       display="inline"
                       id="path48" />
                    <g
                       stroke-dasharray="none"
                       stroke-miterlimit="4"
                       stroke-width="0.801969"
                       id="g53">
                      <g
                         stroke-dasharray="none"
                         stroke-miterlimit="4"
                         stroke-width="0.801969"
                         id="g52">
                        <g
                           stroke-dasharray="none"
                           stroke-miterlimit="4"
                           stroke-width="0.801969"
                           id="g51">
                          <path
                             fill="#fff2ac"
                             fill-opacity="1"
                             fill-rule="evenodd"
                             stroke="none"
                             d="m 477.69652,817.99066 34.196,0.18484 -2.52619,-3.57363 -29.88299,-0.0616 -1.78682,3.45041 z"
                             id="path49" />
                          <path
                             fill="#ddad00"
                             fill-opacity="1"
                             fill-rule="evenodd"
                             stroke="none"
                             d="m 511.75052,822.80242 -34.196,-0.18484 2.52619,3.57363 29.88299,0.0616 1.78682,-3.45041 z"
                             display="inline"
                             id="path50" />
                          <path
                             fill="none"
                             stroke="#806600"
                             stroke-dasharray="none"
                             stroke-linecap="butt"
                             stroke-linejoin="miter"
                             stroke-miterlimit="4"
                             stroke-opacity="1"
                             stroke-width="0.801969"
                             d="m 513.8593,820.35737 -4.1277,-5.71831 H 479.582 l -4.1434,5.71831 4.1434,5.6925 h 30.1496 z"
                             display="inline"
                             id="path51" />
                        </g>
                      </g>
                    </g>
                  </g>
                </g>
              </g>
            </g>
          </g>
        </g>
      </g>
    </g>
  </g>
</svg>
